<svg viewBox="0 0 24 24" fill="none" xmlns="http://www.w3.org/2000/svg">
    <path fill="currentColor" d="M8.25 8.5a.75.75 0 0 0 1.5 0h-1.5ZM9 8.267h.75v-.004L9 8.267Zm.939-2.303.533.528-.533-.528ZM12.23 5v-.75h-.004l.004.75Zm4.038 0 .004-.75h-.004V5Zm2.292.964-.533.528.533-.528Zm.939 2.303-.75-.004v.004h.75Zm0 3.966h-.75v.004l.75-.004Zm-.939 2.303-.533-.528.533.528Zm-2.292.964v.75h.004l-.004-.75ZM16 14.75a.75.75 0 0 0 0 1.5v-1.5Zm-7-5.5a.75.75 0 0 0 0-1.5v1.5Zm-.269-.75v-.75h-.004l.004.75Zm-2.292.964.533.528-.533-.528ZM5.5 11.767h.75v-.004l-.75.004Zm0 3.967.75.004v-.004H5.5ZM8.731 19l-.004.75h.004V19Zm4.038 0v.75h.004L12.77 19Zm2.292-.964-.533-.528.533.528ZM16 15.733h-.75v.004l.75-.004Zm.75-.233a.75.75 0 1 0-1.5 0h1.5ZM9 7.75a.75.75 0 0 0 0 1.5v-1.5Zm3.77.75.003-.75h-.004v.75Zm2.291.964.533-.527-.533.527Zm.94 2.303-.75-.004v.004H16Zm-.75 3.733a.75.75 0 1 0 1.5 0h-1.5Zm-5.5-7v-.233h-1.5V8.5h1.5Zm-.001-.237c-.004-.663.256-1.3.722-1.771L9.406 5.437A3.999 3.999 0 0 0 8.25 8.27l1.5-.008Zm.722-1.771a2.499 2.499 0 0 1 1.763-.742l-.008-1.5a3.999 3.999 0 0 0-2.821 1.187l1.066 1.055Zm1.76-.742h4.037v-1.5h-4.038v1.5Zm4.033 0c.663.004 1.297.27 1.763.742l1.066-1.055a3.999 3.999 0 0 0-2.82-1.187l-.01 1.5Zm1.763.742a2.5 2.5 0 0 1 .722 1.77l1.5.01a3.999 3.999 0 0 0-1.156-2.835l-1.066 1.055Zm.722 1.775v3.966h1.5V8.267h-1.5Zm0 3.97a2.5 2.5 0 0 1-.722 1.771l1.066 1.055a4 4 0 0 0 1.156-2.834l-1.5.008Zm-.722 1.771a2.5 2.5 0 0 1-1.763.742l.008 1.5a4 4 0 0 0 2.821-1.187l-1.066-1.055Zm-1.759.742H16v1.5h.269v-1.5ZM9 7.75h-.269v1.5H9v-1.5Zm-.273 0a3.999 3.999 0 0 0-2.821 1.187l1.066 1.055a2.499 2.499 0 0 1 1.763-.742l-.008-1.5ZM5.906 8.937A4 4 0 0 0 4.75 11.77l1.5-.008a2.5 2.5 0 0 1 .722-1.771L5.906 8.937Zm-1.156 2.83v3.967h1.5v-3.967h-1.5Zm0 3.963a3.999 3.999 0 0 0 3.977 4.02l.008-1.5a2.499 2.499 0 0 1-2.485-2.512l-1.5-.008Zm3.981 4.02h4.038v-1.5H8.731v1.5Zm4.042 0a4 4 0 0 0 2.821-1.187l-1.066-1.055a2.5 2.5 0 0 1-1.763.742l.008 1.5Zm2.821-1.187a4 4 0 0 0 1.156-2.834l-1.5.008a2.5 2.5 0 0 1-.722 1.771l1.066 1.055Zm1.156-2.83V15.5h-1.5v.233h1.5ZM9 9.25h3.77v-1.5H9v1.5Zm3.765 0c.663.004 1.297.27 1.763.742l1.066-1.055a3.999 3.999 0 0 0-2.82-1.187l-.01 1.5Zm1.763.742a2.5 2.5 0 0 1 .722 1.77l1.5.01a4 4 0 0 0-1.156-2.835l-1.066 1.055Zm.722 1.775V15.5h1.5v-3.733h-1.5Z" />
</svg>
